<?xml version="1.0" encoding="utf-8"?>
<!-- Generator: Adobe Illustrator 25.1.0, SVG Export Plug-In . SVG Version: 6.00 Build 0)  -->
<svg version="1.1" id="Layer_1" xmlns="http://www.w3.org/2000/svg" xmlns:xlink="http://www.w3.org/1999/xlink" x="0px" y="0px"
	 viewBox="0 0 24 24" style="enable-background:new 0 0 24 24;" xml:space="preserve">
<style type="text/css">
	.st0{fill:url(#SVGID_1_);}
</style>
<linearGradient id="SVGID_1_" gradientUnits="userSpaceOnUse" x1="6.508749e-02" y1="12.05" x2="24.0153" y2="12.05">
	<stop  offset="0" style="stop-color:#7A849D"/>
	<stop  offset="1.602422e-02" style="stop-color:#7A849D"/>
	<stop  offset="0.1095" style="stop-color:#7A849D"/>
	<stop  offset="0.2024" style="stop-color:#7A849D"/>
	<stop  offset="0.2933" style="stop-color:#7A849D"/>
	<stop  offset="0.3564" style="stop-color:#7A849D"/>
	<stop  offset="0.6531" style="stop-color:#7A849D"/>
	<stop  offset="0.8161" style="stop-color:#7A849D"/>
</linearGradient>
<path class="st0" d="M5.4,15.1c-1.8,0-3.3-1.5-3.3-3.3s1.5-3.3,3.3-3.3s3.3,1.5,3.3,3.3S7.2,15.1,5.4,15.1z M5.4,9.7
	c-1.2,0-2.1,1-2.1,2.1s1,2.1,2.1,2.1s2.1-1,2.1-2.1l0,0C7.5,10.6,6.6,9.7,5.4,9.7z M10.2,22H0.6C0.3,22,0,21.7,0,21.4
	c0-3.2,2.4-5.9,5.4-5.9s5.4,2.6,5.4,5.9C10.8,21.7,10.6,22,10.2,22L10.2,22z M1.2,20.8h8.5c-0.3-2.4-2.1-4.2-4.2-4.2
	S1.4,18.5,1.2,20.8z M18.6,15.1c-1.8,0-3.3-1.5-3.3-3.3s1.5-3.3,3.3-3.3c1.8,0,3.3,1.5,3.3,3.3S20.4,15.1,18.6,15.1z M18.6,9.7
	c-1.2,0-2.1,1-2.1,2.1s1,2.1,2.1,2.1c1.2,0,2.1-1,2.1-2.1l0,0C20.7,10.6,19.8,9.7,18.6,9.7z M23.4,22h-9.7c-0.3,0-0.6-0.3-0.6-0.6
	c0-3.2,2.4-5.9,5.4-5.9c0.9,0,1.8,0.2,2.6,0.7c0.8,0.5,1.4,1.1,1.9,1.9c0.3,0.5,0.5,1,0.7,1.6c0.1,0.3,0.1,0.6,0.2,0.9
	c0,0.3,0.1,0.6,0.1,0.8C23.9,21.8,23.7,22,23.4,22z M14.3,20.8h8.5c-0.3-2.4-2.1-4.2-4.2-4.2S14.6,18.5,14.3,20.8z M15.3,9.8
	c-0.2,0-0.4-0.1-0.5-0.2c-0.2-0.1-0.4-0.2-0.6-0.2c-0.1,0-0.2-0.1-0.4-0.1c0,0-0.3-0.1-0.3-0.1c-0.7,0.4-1.6,0.6-2.4,0.6
	c-2.3,0-4.7-1.5-4.7-3.9c0-0.5,0.1-0.9,0.3-1.3c0.9-2.3,3.7-2.5,3.7-2.5c0.2,0,0.5,0,0.7,0c2.6,0,4.7,1.7,4.7,3.9
	c0,0.6-0.2,1.2-0.6,1.8c0,0,0.1,0.2,0.1,0.2c0.1,0.2,0.2,0.4,0.2,0.5c0.1,0.2,0.1,0.3,0.2,0.5c0.1,0.1,0.1,0.2,0.1,0.4
	C15.8,9.7,15.5,9.8,15.3,9.8z M11.1,3C9,3,7.3,4.3,7.3,5.9c0,1.6,1.7,2.9,3.8,2.9c0.4,0,0.9-0.1,1.3-0.2c0.2-0.1,0.4-0.1,0.6-0.2
	c0.2-0.1,0.3-0.2,0.5-0.3c0.3-0.1,0.6,0.1,0.9,0.2c0,0,0.1,0,0.1,0.1c-0.1-0.2-0.2-0.5-0.3-0.7c-0.1-0.2,0-0.3,0.1-0.5
	c0.4-0.5,0.5-1,0.5-1.4C14.8,4.3,13.1,3,11.1,3z M13,5.6c0.2,0,0.4-0.2,0.4-0.4S13.2,4.8,13,4.8H9.2C9,4.8,8.8,4.9,8.8,5.2
	S9,5.6,9.2,5.6H13z M12.1,6.9c0.2,0,0.4-0.2,0.4-0.4s-0.2-0.4-0.4-0.4H9.2C9,6.1,8.8,6.3,8.8,6.5S9,6.9,9.2,6.9H12.1z"/>
</svg>
