<svg xmlns="http://www.w3.org/2000/svg" viewBox="0 0 500 500" style="enable-background:new 0 0 500 500" xml:space="preserve"><linearGradient id="a" gradientUnits="userSpaceOnUse" x1="66.966" y1="250" x2="433.034" y2="250"><stop offset="0" style="stop-color:#7A849D"/><stop offset=".016" style="stop-color:#7A849D"/><stop offset=".11" style="stop-color:#7A849D"/><stop offset=".202" style="stop-color:#7A849D"/><stop offset=".293" style="stop-color:#7A849D"/><stop offset=".356" style="stop-color:#7A849D"/><stop offset=".653" style="stop-color:#7A849D"/><stop offset=".816" style="stop-color:#7A849D"/></linearGradient><path d="m425.359 165.046-25.263-18.922 14.542-27.99a19.16 19.16 0 0 0 .253-17.169 19.174 19.174 0 0 0-13.605-10.485l-30.92-6.017.986-31.57a19.155 19.155 0 0 0-7.211-15.59 19.184 19.184 0 0 0-16.805-3.556l-30.522 7.994-12.839-28.885a19.17 19.17 0 0 0-29.941-6.817l-24.032 20.456-24.036-20.457a19.184 19.184 0 0 0-16.68-4.094 19.17 19.17 0 0 0-13.261 10.912l-12.839 28.889-30.526-7.998a19.173 19.173 0 0 0-24.016 19.142l.986 31.575-30.915 6.016a19.172 19.172 0 0 0-13.348 27.654l14.542 27.99-25.267 18.922a19.174 19.174 0 0 0-.021 30.671l25.288 18.989-14.546 28.011a19.172 19.172 0 0 0 13.352 27.65l30.92 6.021-.986 31.57c-.327 10.588 7.986 19.436 18.574 19.764.116 0 .236.008.352.008l-44.173 107.235a21.211 21.211 0 0 0 4.045 22.49 21.215 21.215 0 0 0 22.113 5.777l40.729-13.191 17.837 36.572a20.957 20.957 0 0 0 19.034 11.919c.249 0 .493-.004.742-.012a20.966 20.966 0 0 0 18.943-13.187l23.788-58.255 22.532 55.072a20.972 20.972 0 0 0 18.943 13.187c.249.008.493.012.742.012a20.958 20.958 0 0 0 19.034-11.919l17.841-36.572 40.729 13.191a21.208 21.208 0 0 0 22.109-5.777 21.215 21.215 0 0 0 4.045-22.49l-42.88-104.11c10.195-.821 17.957-9.494 17.642-19.718l-.986-31.574 30.903-6.013a19.16 19.16 0 0 0 13.601-10.481 19.16 19.16 0 0 0-.253-17.169l-14.546-28.002 25.288-18.989a19.174 19.174 0 0 0 7.658-15.342 19.173 19.173 0 0 0-7.679-15.329l.003-.009zm-218.166 312.26-17.832-36.564c-4.67-9.465-15.557-14.094-25.611-10.887l-40.725 13.187 49.946-121.263 10.22-2.677 12.835 28.885c4.306 9.685 15.648 14.045 25.333 9.735.253-.112.506-.232.754-.356l17.049 41.678-31.969 78.262zm129.062-50.634c-10.054-3.212-20.945 1.417-25.611 10.887l-17.841 36.564-53.468-130.687 10.667-9.084 24.036 20.456a19.007 19.007 0 0 0 12.358 4.579c1.455 0 2.901-.166 4.318-.489a18.993 18.993 0 0 0 13.261-10.907l12.839-28.889 11.695 3.063 48.47 117.695-40.724-13.188z" style="fill:url(#a)"/><path d="M250.003 83.555c-53.499 0-96.869 43.369-96.869 96.867 0 53.496 43.37 96.865 96.869 96.865 53.494 0 96.864-43.369 96.864-96.865-.061-53.474-43.391-96.805-96.864-96.867zm0 172.513c-41.782 0-75.648-33.866-75.648-75.647 0-41.778 33.866-75.648 75.648-75.648 41.777 0 75.648 33.87 75.648 75.648-.051 41.76-33.891 75.602-75.648 75.647z" style="fill:#fff"/></svg>
