<?xml version="1.0" encoding="utf-8"?>
<!-- Generator: Adobe Illustrator 25.1.0, SVG Export Plug-In . SVG Version: 6.00 Build 0)  -->
<svg version="1.1" id="Layer_1" xmlns="http://www.w3.org/2000/svg" xmlns:xlink="http://www.w3.org/1999/xlink" x="0px" y="0px"
	 viewBox="0 0 500 500" style="enable-background:new 0 0 500 500;" xml:space="preserve">
<style type="text/css">
	.st0{fill:url(#SVGID_1_);}
	.st1{fill:url(#SVGID_2_);}
</style>
<g>
	<linearGradient id="SVGID_1_" gradientUnits="userSpaceOnUse" x1="31.1523" y1="146.8984" x2="468.8477" y2="146.8984">
		<stop  offset="0" style="stop-color:#7A849D"/>
		<stop  offset="1.602422e-02" style="stop-color:#7A849D"/>
		<stop  offset="0.1095" style="stop-color:#7A849D"/>
		<stop  offset="0.2024" style="stop-color:#7A849D"/>
		<stop  offset="0.2933" style="stop-color:#7A849D"/>
		<stop  offset="0.3564" style="stop-color:#7A849D"/>
		<stop  offset="0.6531" style="stop-color:#7A849D"/>
		<stop  offset="0.8161" style="stop-color:#7A849D"/>
	</linearGradient>
	<path class="st0" d="M74.9,234.4c11.8,0,22.5-4.7,30.4-12.3l42.9,21.5c-0.2,1.8-0.3,3.6-0.3,5.4c0,24.1,19.6,43.8,43.8,43.8
		s43.8-19.6,43.8-43.8c0-6.7-1.5-13.1-4.3-18.9l58.4-58.4c5.7,2.7,12.1,4.3,18.9,4.3c24.1,0,43.8-19.6,43.8-43.8c0-4.6-0.7-9-2-13.1
		l50.7-38c6.9,4.6,15.3,7.3,24.2,7.3c24.1,0,43.8-19.6,43.8-43.8S449.2,1,425.1,1s-43.8,19.6-43.8,43.8c0,4.6,0.7,9,2,13.1l-50.7,38
		c-6.9-4.6-15.3-7.3-24.2-7.3c-24.1,0-43.8,19.6-43.8,43.8c0,6.7,1.5,13.1,4.3,18.9l-58.4,58.4c-5.7-2.7-12.1-4.3-18.9-4.3
		c-11.8,0-22.5,4.7-30.4,12.3l-42.9-21.5c0.2-1.8,0.3-3.6,0.3-5.4c0-24.1-19.6-43.8-43.8-43.8s-43.8,19.6-43.8,43.8
		S50.8,234.4,74.9,234.4z M425.1,30.2c8,0,14.6,6.5,14.6,14.6s-6.5,14.6-14.6,14.6c-8,0-14.6-6.5-14.6-14.6S417,30.2,425.1,30.2z
		 M308.4,117.7c8,0,14.6,6.5,14.6,14.6s-6.5,14.6-14.6,14.6c-8,0-14.6-6.5-14.6-14.6S300.3,117.7,308.4,117.7z M191.6,234.4
		c8,0,14.6,6.5,14.6,14.6c0,8-6.5,14.6-14.6,14.6s-14.6-6.5-14.6-14.6C177.1,241,183.6,234.4,191.6,234.4z M74.9,176.1
		c8,0,14.6,6.5,14.6,14.6s-6.5,14.6-14.6,14.6s-14.6-6.5-14.6-14.6S66.9,176.1,74.9,176.1z"/>
	<linearGradient id="SVGID_2_" gradientUnits="userSpaceOnUse" x1="1" y1="322.9492" x2="499" y2="322.9492">
		<stop  offset="0" style="stop-color:#7A849D"/>
		<stop  offset="1.602422e-02" style="stop-color:#7A849D"/>
		<stop  offset="0.1095" style="stop-color:#7A849D"/>
		<stop  offset="0.2024" style="stop-color:#7A849D"/>
		<stop  offset="0.2933" style="stop-color:#7A849D"/>
		<stop  offset="0.3564" style="stop-color:#7A849D"/>
		<stop  offset="0.6531" style="stop-color:#7A849D"/>
		<stop  offset="0.8161" style="stop-color:#7A849D"/>
	</linearGradient>
	<path class="st1" d="M484.4,469.8h-15.6V161.5c0-8.1-6.5-14.6-14.6-14.6h-58.4c-8.1,0-14.6,6.5-14.6,14.6v308.3h-29.2V249
		c0-8.1-6.5-14.6-14.6-14.6h-58.4c-8.1,0-14.6,6.5-14.6,14.6v220.8h-29.2V365.7c0-8.1-6.5-14.6-14.6-14.6h-58.4
		c-8.1,0-14.6,6.5-14.6,14.6v104.1h-29.2V307.4c0-8.1-6.5-14.6-14.6-14.6H45.7c-8.1,0-14.6,6.5-14.6,14.6v162.4H15.6
		c-8.1,0-14.6,6.5-14.6,14.6c0,8.1,6.5,14.6,14.6,14.6h468.8c8.1,0,14.6-6.5,14.6-14.6C499,476.4,492.5,469.8,484.4,469.8z
		 M410.5,176.1h29.2v293.7h-29.2V176.1z M293.8,263.6h29.2v206.2h-29.2V263.6z M177.1,380.3h29.2v89.5h-29.2V380.3z M60.3,322h29.2
		v147.8H60.3V322z"/>
</g>
</svg>
