<?xml version="1.0" encoding="utf-8"?>
<!-- Generator: Adobe Illustrator 25.1.0, SVG Export Plug-In . SVG Version: 6.00 Build 0)  -->
<svg version="1.1" id="Layer_1" xmlns="http://www.w3.org/2000/svg" xmlns:xlink="http://www.w3.org/1999/xlink" x="0px" y="0px"
	 viewBox="0 0 500 500" style="enable-background:new 0 0 500 500;" xml:space="preserve">
<style type="text/css">
	.st0{fill:url(#SVGID_1_);}
</style>
<linearGradient id="SVGID_1_" gradientUnits="userSpaceOnUse" x1="2.3997" y1="250" x2="497.6003" y2="250">
	<stop  offset="0" style="stop-color:#7A849D"/>
	<stop  offset="0.016" style="stop-color:#7A849D"/>
	<stop  offset="0.1095" style="stop-color:#7A849D"/>
	<stop  offset="0.2024" style="stop-color:#7A849D"/>
	<stop  offset="0.2933" style="stop-color:#7A849D"/>
	<stop  offset="0.3564" style="stop-color:#7A849D"/>
	<stop  offset="0.6531" style="stop-color:#7A849D"/>
	<stop  offset="0.8161" style="stop-color:#7A849D"/>
</linearGradient>
<path class="st0" d="M97.365,497.598c-25.374,0-49.232-9.874-67.165-27.808c-2.09-2.101-4.087-4.271-5.855-6.418l-0.413-0.494
	l-1.079-1.86c-1.24-2.491-1.447-5.511-0.505-8.335c0.964-2.824,2.962-5.098,5.626-6.418l49.76-24.489l-14.65-29.736l-44.616,21.964
	c-1.493,0.735-3.123,1.125-4.73,1.148c-6.246,0-11.229-4.925-11.32-10.976c-0.069-3.892,0.092-7.819,0.528-11.722
	c5.19-48.302,45.695-84.743,94.238-84.743c2.618,0,5.281,0.115,7.945,0.333l54.651-54.639L31.508,124.952
	c-1.63-1.619-2.687-3.697-3.1-5.982L12.312,24.549l0.138-2.928c0.964-5.419,5.58-9.311,10.976-9.311l95.524,16.108
	c2.25,0.379,4.386,1.481,6.016,3.1l128.429,128.268l54.605-54.605c-0.207-2.606-0.321-5.212-0.321-7.83
	c0-25.362,9.874-49.209,27.808-67.142s41.792-27.808,67.142-27.808c25.374,0,49.232,9.874,67.165,27.808
	c2.09,2.113,4.087,4.26,5.878,6.429l1.47,2.342c1.24,2.491,1.447,5.511,0.505,8.335c-0.964,2.824-2.962,5.098-5.626,6.418
	l-49.76,24.489l14.65,29.736l44.616-21.964c1.493-0.758,3.192-1.148,4.891-1.148c2.067,0,4.064,0.563,5.832,1.63
	c3.261,1.998,5.258,5.477,5.35,9.3c-0.046,53.973-42.618,96.511-94.858,96.511l0,0c-2.664,0-5.281-0.115-7.876-0.333l-54.582,54.605
	l105.03,104.904c25.419,25.408,25.902,66.465,1.447,92.458l-1.447,1.516c-12.285,12.377-29.346,19.495-46.82,19.495
	c-17.681,0-34.765-7.13-47.073-19.564l-104.87-105.088l-54.559,54.536c0.207,2.606,0.321,5.212,0.321,7.83
	c0,25.362-9.874,49.209-27.808,67.142C146.573,487.725,122.715,497.598,97.365,497.598z M51.876,459.343
	c12.882,10.333,28.772,15.947,45.466,15.947c19.426,0,37.681-7.543,51.413-21.252c28.336-28.347,28.336-74.456,0-102.791
	c-13.732-13.732-31.987-21.286-51.39-21.286c-19.426,0-37.681,7.555-51.413,21.286c-9.392,9.323-16.005,21.103-19.174,33.835
	l36.464-17.945c1.538-0.769,3.192-1.148,4.891-1.148c4.294,0,8.129,2.377,10.012,6.211l24.501,49.725
	c2.687,5.522,0.413,12.205-5.075,14.914L51.876,459.343z M367.22,429.652c8.198,8.267,19.541,12.997,31.137,12.997h0.046
	c11.343,0,22.021-4.26,30.196-12.021l0.184-0.85l2.021-1.068c7.027-7.325,11.734-18.691,11.688-30.31
	c0.046-11.619-4.661-22.974-12.905-31.172l-3.467-3.444l-62.366,62.378L367.22,429.652z M348.023,410.364l7.692-7.681
	L62.898,109.349l-7.738,7.738L348.023,410.364z M371.445,386.931l15.477-15.477L93.576,78.648L78.627,93.585L371.445,386.931z
	 M130.867,313.807c25.695,9.621,45.718,29.61,55.34,55.282l44.57-44.582l-55.248-55.351L130.867,313.807z M402.674,355.702
	l7.669-7.681L117.09,55.146l-7.738,7.75L402.674,355.702z M324.509,230.798l44.616-44.605c-25.695-9.621-45.718-29.622-55.34-55.282
	l-44.616,44.616L324.509,230.798z M402.697,24.71c-19.38,0-37.635,7.543-51.344,21.252c-28.336,28.313-28.359,74.398-0.046,102.734
	c13.732,13.743,31.964,21.309,51.39,21.309c19.38,0,37.612-7.555,51.344-21.263c9.392-9.311,16.028-21.091,19.174-33.824
	l-36.464,17.934c-1.538,0.769-3.192,1.16-4.914,1.16c-4.271,0-8.106-2.388-9.989-6.211l-24.501-49.737
	c-2.71-5.511-0.413-12.193,5.075-14.903l45.718-22.503C435.28,30.324,419.367,24.71,402.697,24.71z M46.756,93.976l47.211-47.211
	l-56.901-9.69L46.756,93.976z"/>
</svg>
